<svg width="1000" height="140" viewBox="0 0 1000 140" xmlns="http://www.w3.org/2000/svg">
  <rect width="1000" height="140" fill="#141414" />
  
  <!-- === LEFT SIDE: INFO === -->
  <path d="M 50 10 Q 50 10 60 10 L 750 10 L 750 130 L 60 130 Q 50 130 50 120 Z" fill="#252525" stroke="#333" stroke-width="1"/>
  <!-- Seamless joiner line -->
  <rect x="748" y="11" width="4" height="118" fill="#252525"/>

  <text x="90" y="55" font-family="Segoe UI, Arial, sans-serif" font-size="26" font-weight="bold" fill="#ffffff">CS2 SUBSCRIPTION</text>
  <text x="90" y="85" font-family="Segoe UI, Arial, sans-serif" font-size="14" fill="#888888">Secure • Cloud Configs • Visuals</text>

  <line x1="400" y1="30" x2="400" y2="110" stroke="#444" stroke-width="1" />
  
  <text x="430" y="60" font-family="Segoe UI, Arial, sans-serif" font-size="18" fill="#cccccc">1 Month</text>
  <text x="530" y="60" font-family="Segoe UI, Arial, sans-serif" font-size="18" font-weight="bold" fill="#ffffff">$25 AUD</text>
  
  <text x="430" y="95" font-family="Segoe UI, Arial, sans-serif" font-size="18" fill="#cccccc">3 Months</text>
  <text x="530" y="95" font-family="Segoe UI, Arial, sans-serif" font-size="18" font-weight="bold" fill="#ffffff">$65 AUD</text>

  <!-- === RIGHT SIDE: BUTTON === -->
  <path d="M 750 10 L 940 10 Q 950 10 950 20 L 950 120 Q 950 130 940 130 L 750 130 Z" fill="#252525" stroke="#333" stroke-width="1"/>
  
  <!-- Green Button Visual -->
  <rect x="780" y="45" width="140" height="50" rx="4" fill="#eeeeee" />
  <text x="850" y="76" text-anchor="middle" font-family="Segoe UI, Arial, sans-serif" font-size="16" font-weight="bold" fill="#141414">BUY NOW ➜</text>
</svg>